<svg width="207" height="126" viewBox="0 0 207 126" fill="none" xmlns="http://www.w3.org/2000/svg">
<path d="M13.0133 30.793C13.3474 31.1671 13.5486 31.5808 13.617 32.0339C13.691 32.4822 13.6396 32.9286 13.463 33.3731C13.2814 33.8121 12.9843 34.2159 12.5717 34.5844C12.1205 34.9873 11.6586 35.2563 11.186 35.3916C10.7085 35.5213 10.2413 35.5132 9.78462 35.3672C9.323 35.2157 8.89507 34.9303 8.50083 34.511L9.40042 33.7077C9.79446 34.0382 10.1979 34.202 10.6108 34.1993C11.0237 34.1965 11.4117 34.0329 11.7748 33.7087C12.0114 33.4974 12.1784 33.2691 12.2759 33.0239C12.3789 32.7737 12.4086 32.5246 12.3652 32.2766C12.3168 32.0231 12.1968 31.7891 12.0052 31.5745C11.7153 31.2499 11.3749 31.0791 10.9841 31.0622C10.5987 31.0405 10.2354 31.1819 9.89432 31.4865L9.11852 32.1793L8.33731 31.3044L9.11311 30.6117C9.46524 30.2972 9.66508 29.9506 9.71261 29.572C9.76014 29.1933 9.65125 28.8554 9.38593 28.5583C9.10588 28.2446 8.76982 28.0898 8.37778 28.0938C7.99123 28.0928 7.61639 28.2545 7.25325 28.5787C6.8736 28.9178 6.66129 29.3002 6.61632 29.726C6.57135 30.1519 6.69459 30.6055 6.98606 31.087L6.08646 31.8903C5.70067 31.414 5.46158 30.9303 5.36918 30.4392C5.27678 29.9481 5.3247 29.4702 5.51293 29.0054C5.69625 28.5351 6.01625 28.0961 6.47292 27.6883C6.89108 27.3149 7.32851 27.0627 7.7852 26.9318C8.2419 26.8009 8.68111 26.7944 9.10284 26.9123C9.53007 27.0252 9.91565 27.2743 10.2596 27.6594C10.5789 28.0171 10.7553 28.4084 10.7888 28.8335C10.8277 29.2536 10.7272 29.645 10.4873 30.0076L10.6052 30.1396C10.987 29.947 11.394 29.91 11.8262 30.0284C12.2589 30.1365 12.6546 30.3913 13.0133 30.793Z" fill="#7FA0C6"/>
<path d="M18.3795 30.5071C17.5037 31.1339 16.6237 31.2921 15.7393 30.9817C14.8549 30.6713 13.9662 29.8923 13.0732 28.6446C12.1801 27.3969 11.7293 26.3045 11.7207 25.3672C11.7121 24.43 12.1456 23.648 13.0214 23.0211C13.8971 22.3943 14.7772 22.2361 15.6616 22.5465C16.546 22.8569 17.4347 23.636 18.3277 24.8836C19.2207 26.1313 19.6716 27.2237 19.6802 28.161C19.6888 29.0982 19.2553 29.8803 18.3795 30.5071ZM17.6904 29.5444C18.2423 29.1494 18.4862 28.6346 18.4221 28.0001C18.358 27.3656 17.9846 26.5715 17.302 25.6178C16.6194 24.664 15.9881 24.0545 15.4081 23.7893C14.8282 23.524 14.2623 23.5889 13.7105 23.9839C13.1586 24.3789 12.9147 24.8936 12.9788 25.5281C13.0429 26.1626 13.4162 26.9567 14.0989 27.9104C14.7815 28.8642 15.4128 29.4737 15.9927 29.7389C16.5727 30.0042 17.1386 29.9393 17.6904 29.5444ZM14.4009 28.9597L16.1268 23.4246L16.964 24.5942L15.2381 30.1294L14.4009 28.9597Z" fill="#7FA0C6"/>
<path d="M21.9512 17.3464L24.3608 29.0039L23.3317 29.6113L20.9221 17.9538L21.9512 17.3464Z" fill="#7FA0C6"/>
<path d="M31.2174 23.6636C30.251 24.1391 29.3569 24.1516 28.5351 23.701C27.7132 23.2504 26.9636 22.3367 26.2861 20.9601C25.6087 19.5834 25.3422 18.432 25.4867 17.5059C25.6311 16.5798 26.1865 15.879 27.1528 15.4035C28.1192 14.928 29.0133 14.9156 29.8351 15.3662C30.657 15.8168 31.4066 16.7304 32.0841 18.1071C32.7615 19.4838 33.028 20.6351 32.8835 21.5612C32.7391 22.4873 32.1837 23.1881 31.2174 23.6636ZM30.6946 22.6013C31.3036 22.3017 31.6282 21.8336 31.6685 21.1972C31.7089 20.5608 31.4701 19.7164 30.9523 18.664C30.4344 17.6116 29.9111 16.9073 29.3822 16.5509C28.8534 16.1946 28.2845 16.1662 27.6756 16.4658C27.0666 16.7655 26.742 17.2335 26.7017 17.8699C26.6613 18.5064 26.9001 19.3508 27.4179 20.4031C27.9358 21.4555 28.4591 22.1599 28.988 22.5162C29.5168 22.8726 30.0857 22.9009 30.6946 22.6013ZM27.5446 21.4877L30.1508 16.3084L30.7859 17.599L28.1797 22.7783L27.5446 21.4877Z" fill="#7FA0C6"/>
<path d="M38.0246 20.8902C37.4858 21.1122 36.9606 21.1929 36.449 21.1323C35.9346 21.065 35.4724 20.8724 35.0623 20.5547C34.6494 20.2301 34.3306 19.795 34.1058 19.2494C33.9345 18.8333 33.8421 18.3767 33.8289 17.8796C33.8156 17.3825 33.8781 16.7983 34.0165 16.127L34.7907 12.4575L36.0901 11.9223L35.2947 15.5407L35.5259 15.6369C35.5965 15.576 35.6767 15.519 35.7666 15.466C35.8605 15.4034 35.9586 15.351 36.0609 15.3089C36.5451 15.1094 37.0226 15.0484 37.4933 15.1258C37.9707 15.2004 38.3981 15.3953 38.7752 15.7107C39.1592 16.0232 39.458 16.4386 39.6715 16.957C39.8962 17.5027 39.9763 18.0361 39.9118 18.5573C39.8444 19.0717 39.6485 19.5353 39.3239 19.9482C39.0034 20.3515 38.5703 20.6655 38.0246 20.8902ZM35.2722 18.769C35.4098 19.1032 35.5988 19.3684 35.8392 19.5646C36.0795 19.7607 36.3486 19.8813 36.6463 19.9262C36.9508 19.9683 37.2634 19.9233 37.584 19.7913C37.9113 19.6565 38.1649 19.4683 38.3446 19.2267C38.5312 18.9823 38.6373 18.7073 38.6629 18.4015C38.6954 18.093 38.6428 17.7716 38.5052 17.4374C38.3675 17.1032 38.1799 16.8414 37.9424 16.652C37.7088 16.453 37.4412 16.3359 37.1395 16.3006C36.8418 16.2557 36.5292 16.3007 36.2018 16.4355C35.8812 16.5676 35.6277 16.7558 35.4411 17.0001C35.2586 17.2349 35.1511 17.5065 35.1186 17.8151C35.0833 18.1168 35.1345 18.4348 35.2722 18.769Z" fill="#7FA0C6"/>
<path d="M44.3092 8.63978L44.3339 20.5437L43.2039 20.9326L43.1793 9.02866L44.3092 8.63978Z" fill="#7FA0C6"/>
<path d="M49.0523 15.2427L51.386 12.1716C51.7103 11.7491 51.9227 11.351 52.0231 10.9771C52.1215 10.5961 52.117 10.2177 52.0097 9.84176C51.874 9.36652 51.6329 9.0326 51.2864 8.84001C50.9379 8.64032 50.5261 8.60831 50.0508 8.74398C49.6039 8.87155 49.2781 9.11415 49.0734 9.47178C48.8686 9.82941 48.7854 10.2904 48.8238 10.8548L47.6534 11.1889C47.5178 10.6063 47.5189 10.0728 47.6568 9.58849C47.7998 9.09508 48.0492 8.67869 48.4049 8.33933C48.7677 7.99795 49.208 7.75335 49.7258 7.60553C50.2791 7.44758 50.7903 7.42439 51.2594 7.53595C51.7335 7.6384 52.1408 7.85583 52.4812 8.18825C52.8216 8.52067 53.0687 8.95642 53.2226 9.4955C53.3806 10.0488 53.3855 10.6035 53.2374 11.1598C53.0894 11.716 52.7878 12.2854 52.3327 12.8679L50.2423 15.5014L50.2727 15.6078L54.4435 14.4171L54.7685 15.5556L49.5656 17.0408L49.0523 15.2427Z" fill="#7FA0C6"/>
<path d="M59.4072 14.8069C58.3585 15.0518 57.4847 14.862 56.7858 14.2374C56.087 13.6128 55.5631 12.5535 55.2141 11.0594C54.8652 9.56528 54.8656 8.38346 55.2155 7.51394C55.5654 6.64441 56.2647 6.08717 57.3135 5.84223C58.3622 5.59729 59.236 5.78711 59.9349 6.41169C60.6337 7.03627 61.1577 8.09562 61.5066 9.58973C61.8556 11.0838 61.8551 12.2657 61.5052 13.1352C61.1553 14.0047 60.456 14.5619 59.4072 14.8069ZM59.138 13.654C59.7988 13.4996 60.2208 13.117 60.4038 12.5061C60.5869 11.8953 60.545 11.0187 60.2783 9.87661C60.0115 8.73448 59.6608 7.93012 59.2261 7.46351C58.7914 6.99691 58.2436 6.84079 57.5828 6.99514C56.9219 7.14948 56.4999 7.5321 56.3169 8.14298C56.1338 8.75386 56.1757 9.63037 56.4424 10.7725C56.7092 11.9146 57.0599 12.719 57.4946 13.1856C57.9293 13.6522 58.4771 13.8083 59.138 13.654ZM56.3209 11.8576L60.0296 7.40085L60.3567 8.80157L56.6481 13.2583L56.3209 11.8576Z" fill="#7FA0C6"/>
<path d="M63.7527 11.9401L66.3686 9.10556C66.7318 8.71597 66.9812 8.33988 67.1167 7.9773C67.251 7.60746 67.2826 7.23031 67.2117 6.84585C67.122 6.35983 66.9138 6.00444 66.5873 5.77968C66.2594 5.54766 65.8525 5.47651 65.3665 5.56623C64.9095 5.65059 64.562 5.86101 64.3241 6.19748C64.0861 6.53395 63.9593 6.98492 63.9437 7.55039L62.7468 7.77135C62.6673 7.17842 62.7194 6.64749 62.9028 6.17855C63.0922 5.70102 63.3802 5.31031 63.7666 5.00643C64.1604 4.70121 64.622 4.49972 65.1515 4.40197C65.7173 4.29752 66.2284 4.32319 66.6847 4.47899C67.147 4.62619 67.5317 4.88148 67.8388 5.24485C68.1459 5.60822 68.3503 6.06556 68.4521 6.61686C68.5566 7.18267 68.5086 7.73537 68.3081 8.27495C68.1077 8.81453 67.7532 9.35254 67.2446 9.889L64.9126 12.3111L64.9326 12.4199L69.198 11.6325L69.4129 12.7967L64.0921 13.779L63.7527 11.9401Z" fill="#7FA0C6"/>
<path d="M74.1235 12.4512C73.5464 12.532 73.0176 12.4793 72.5372 12.2934C72.0558 12.1 71.6561 11.7985 71.338 11.3887C71.0189 10.9715 70.8185 10.4707 70.7366 9.88631C70.6743 9.44069 70.6985 8.97549 70.8094 8.49071C70.9203 8.00593 71.1263 7.4557 71.4275 6.84001L73.0909 3.47879L74.4826 3.28397L72.8115 6.5904L73.0113 6.74119C73.0949 6.69969 73.1868 6.66448 73.287 6.63556C73.3935 6.5983 73.5016 6.572 73.6112 6.55666C74.1298 6.48405 74.6075 6.54381 75.044 6.73595C75.4879 6.92706 75.8532 7.22227 76.14 7.62158C76.4341 8.01987 76.6201 8.49661 76.6978 9.05182C76.7796 9.63624 76.7244 10.1728 76.5321 10.6615C76.3388 11.143 76.0336 11.5432 75.6164 11.8623C75.2056 12.1731 74.7079 12.3693 74.1235 12.4512ZM71.9859 9.71144C72.036 10.0694 72.153 10.3733 72.3369 10.6231C72.5209 10.873 72.7514 11.0567 73.0286 11.1743C73.3131 11.2909 73.627 11.3252 73.9703 11.2771C74.321 11.228 74.6134 11.1089 74.8476 10.9197C75.0891 10.7295 75.2604 10.4895 75.3613 10.1998C75.4696 9.90901 75.4987 9.58465 75.4486 9.22669C75.3985 8.86873 75.2819 8.56848 75.099 8.32595C74.9224 8.07508 74.6923 7.895 74.4089 7.78571C74.1317 7.66809 73.8178 7.63383 73.4672 7.68292C73.1238 7.73098 72.8314 7.85013 72.5899 8.04036C72.3546 8.22226 72.1829 8.45858 72.0746 8.74933C71.9653 9.03277 71.9357 9.35348 71.9859 9.71144Z" fill="#7FA0C6"/>
<path d="M88.8715 1.70778L85.783 13.2041L84.5907 13.284L87.6791 1.78772L88.8715 1.70778Z" fill="#7FA0C6"/>
<path d="M97.3384 11.222C96.7336 11.2296 96.2082 11.096 95.7621 10.8213C95.316 10.5465 94.968 10.1525 94.7182 9.63924C94.4682 9.1186 94.3388 8.50423 94.3299 7.79614C94.3209 7.0733 94.4384 6.44846 94.6827 5.92162C94.9268 5.38741 95.2757 4.97361 95.7294 4.68022C96.1905 4.38673 96.7345 4.23606 97.3615 4.22821C97.9073 4.22137 98.3882 4.32969 98.8041 4.55317C99.2199 4.76927 99.5484 5.08237 99.7896 5.49247C100.031 5.89519 100.166 6.3767 100.195 6.93699L99.0776 6.951C98.9753 6.44326 98.7712 6.05114 98.4653 5.77464C98.1667 5.49805 97.7888 5.36262 97.3315 5.36835C96.7488 5.37565 96.3015 5.5915 95.9896 6.0159C95.6777 6.44031 95.5265 7.02868 95.5359 7.78103C95.545 8.51125 95.7071 9.08095 96.0221 9.49012C96.3369 9.89192 96.771 10.0893 97.3242 10.0824C97.7372 10.0772 98.0824 9.9512 98.3596 9.70428C98.6441 9.44989 98.8389 9.10073 98.944 8.65678L100.061 8.64278C100.031 9.15956 99.8966 9.61125 99.658 9.99785C99.4193 10.3771 99.0984 10.6762 98.6954 10.8952C98.2997 11.1067 97.8474 11.2156 97.3384 11.222Z" fill="#7FA0C6"/>
<path d="M104.471 11.2477L104.621 5.75055L102.409 5.69048L102.439 4.55122L108.08 4.70441L108.049 5.84367L105.837 5.78359L105.688 11.2808L104.471 11.2477Z" fill="#7FA0C6"/>
<path d="M109.872 4.95204L111.175 5.03938L112.543 10.1103L113.316 10.1621L112.899 11.2542L111.574 11.1654L109.872 4.95204ZM116.11 5.37022L113.162 12.7911C112.984 13.2302 112.74 13.565 112.429 13.7955C112.118 14.026 111.767 14.1282 111.377 14.1021C110.818 14.0646 110.386 13.8804 110.083 13.5496C109.78 13.2187 109.626 12.7574 109.622 12.1657L110.726 12.2397C110.798 12.4885 110.882 12.6716 110.977 12.7889C111.08 12.9067 111.224 12.9717 111.408 12.9841C111.57 12.9949 111.702 12.952 111.804 12.8554C111.914 12.7593 112.018 12.5962 112.114 12.3661L114.907 5.28955L116.11 5.37022Z" fill="#7FA0C6"/>
<path d="M116.521 13.9261L116.828 11.1213L117.246 11.1671C117.395 11.0276 117.523 10.8747 117.631 10.7084C117.746 10.5355 117.843 10.3236 117.923 10.0725C118.01 9.815 118.093 9.50125 118.171 9.13131C118.249 8.75403 118.329 8.29529 118.411 7.75508C118.493 7.20755 118.587 6.55369 118.692 5.79351L123.147 6.28177L122.548 11.7482L123.362 11.8375L123.054 14.6422L121.91 14.5168L122.094 12.845L117.848 12.3796L117.665 14.0514L116.521 13.9261ZM118.588 11.3142L121.338 11.6156L121.813 7.28205L119.69 7.04937C119.587 7.72075 119.495 8.28582 119.415 8.74456C119.335 9.2033 119.256 9.59158 119.176 9.90939C119.097 10.2272 119.012 10.4961 118.921 10.7162C118.83 10.9363 118.719 11.1356 118.588 11.3142Z" fill="#7FA0C6"/>
<path d="M124.656 13.3351L125.661 6.77279L126.853 6.95544L126.25 10.8928L125.926 12.7126L126.058 12.7327L129.019 7.28721L131.064 7.60056L130.059 14.1629L128.867 13.9802L129.47 10.0428L129.793 8.22303L129.662 8.20292L126.701 13.6485L124.656 13.3351Z" fill="#7FA0C6"/>
<path d="M135.879 15.4489L136.353 13.0611L134.92 12.777C134.442 12.6823 134.046 12.5172 133.732 12.2819C133.418 12.0466 133.197 11.7584 133.069 11.4172C132.95 11.0702 132.932 10.6832 133.017 10.2563C133.102 9.82942 133.265 9.48196 133.506 9.21394C133.756 8.94012 134.071 8.75445 134.451 8.65691C134.831 8.55938 135.26 8.55797 135.738 8.65269L138.364 9.17363L137.073 15.6857L135.879 15.4489ZM131.928 14.6653L134.322 12.3201L135.657 12.5848L133.307 14.9387L131.928 14.6653ZM135.133 11.7025L136.566 11.9866L136.949 10.0547L135.516 9.77059C135.162 9.70027 134.866 9.73184 134.629 9.86531C134.4 9.99299 134.256 10.2088 134.196 10.5127C134.136 10.8166 134.186 11.0747 134.347 11.2871C134.516 11.4937 134.778 11.6322 135.133 11.7025Z" fill="#7FA0C6"/>
<path d="M141.351 17.0073L141.64 15.9278L141.832 15.9793C142.018 16.0289 142.172 16.0512 142.296 16.0461C142.428 16.0358 142.546 15.9796 142.65 15.8775C142.763 15.7703 142.873 15.586 142.981 15.3248C143.097 15.0655 143.226 14.7106 143.369 14.2603L144.416 10.8638L148.756 12.0258L147.039 18.4387L145.863 18.1239L147.285 12.8118L145.201 12.2537L144.406 14.8815C144.218 15.4957 144.029 15.9757 143.837 16.3214C143.654 16.6619 143.46 16.9002 143.256 17.0364C143.052 17.1725 142.82 17.2402 142.56 17.2395C142.303 17.2316 142.006 17.1828 141.672 17.0932L141.351 17.0073Z" fill="#7FA0C6"/>
<path d="M148.97 19.2124L151.006 12.8934L152.154 13.2633L150.932 17.0547L150.324 18.7999L150.45 18.8406L154.239 13.9352L156.209 14.5698L154.173 20.8888L153.025 20.5189L154.246 16.7275L154.855 14.9823L154.729 14.9416L150.939 19.847L148.97 19.2124Z" fill="#7FA0C6"/>
<path d="M159.599 23.1762L160.495 20.865C160.255 20.8512 160.007 20.8183 159.75 20.7663C159.5 20.7169 159.231 20.6363 158.942 20.5244C158.185 20.2312 157.686 19.8243 157.445 19.3037C157.204 18.783 157.22 18.1684 157.495 17.46L158.242 15.5306L159.377 15.9703L158.63 17.8997C158.483 18.278 158.48 18.6013 158.622 18.8696C158.763 19.138 159.061 19.3601 159.515 19.536C159.762 19.6319 159.996 19.7026 160.216 19.7482C160.438 19.7869 160.667 19.8084 160.903 19.8127L161.998 16.9857L163.133 17.4254L160.734 23.6159L159.599 23.1762Z" fill="#7FA0C6"/>
<path d="M162.77 24.7447L165.548 18.7148L166.654 19.224L165.482 21.7666L168.035 22.9424L169.206 20.3998L170.312 20.9091L167.534 26.939L166.429 26.4297L167.554 23.9876L165.001 22.8118L163.876 25.2539L162.77 24.7447Z" fill="#7FA0C6"/>
<path d="M168.726 27.8418L171.938 22.0316L173.003 22.6205L171.943 24.5378L172.612 24.9072C173.244 25.257 173.645 25.7061 173.814 26.2545C173.986 26.7966 173.905 27.371 173.569 27.9778C173.234 28.5847 172.789 28.9625 172.234 29.1112C171.684 29.2535 171.092 29.1498 170.459 28.8L168.726 27.8418ZM170.348 27.4235L171.084 27.8304C171.368 27.9874 171.637 28.0266 171.891 27.948C172.146 27.8694 172.355 27.6816 172.519 27.3846C172.683 27.0877 172.731 26.8106 172.662 26.5536C172.594 26.2965 172.417 26.0894 172.133 25.9324L171.397 25.5256L170.348 27.4235ZM173.336 30.39L176.547 24.5798L177.613 25.1687L174.401 30.9788L173.336 30.39Z" fill="#7FA0C6"/>
<path d="M175.153 31.8301L178.516 30.2857L178.743 26.2444L179.92 27.0319L179.75 29.993L179.654 30.3151L179.746 30.3766L180.007 30.1653L182.753 28.9268L183.856 29.665L180.232 31.3011L180.064 35.1154L178.859 34.3095L178.98 31.6214L179.076 31.2993L178.984 31.2378L178.722 31.4491L176.275 32.5807L175.153 31.8301Z" fill="#7FA0C6"/>
<path d="M182.98 38.0684L187.422 33.1348L188.318 33.9419L185.653 36.902L184.383 38.2456L184.482 38.3344L189.946 35.4079L191.484 36.7924L187.042 41.726L186.145 40.9189L188.811 37.9588L190.08 36.6152L189.981 36.5264L184.517 39.453L182.98 38.0684Z" fill="#7FA0C6"/>
<path d="M189.493 45.4741C189.1 45.0146 188.865 44.5256 188.79 44.0071C188.716 43.4886 188.795 42.969 189.029 42.4483C189.268 41.9227 189.657 41.4297 190.195 40.9691C190.744 40.499 191.299 40.1889 191.86 40.0388C192.427 39.8839 192.968 39.8866 193.484 40.0469C194.005 40.2128 194.469 40.5339 194.877 41.0102C195.232 41.4249 195.457 41.8634 195.552 42.326C195.652 42.7837 195.623 43.2365 195.462 43.6845C195.308 44.1276 195.024 44.5399 194.613 44.9213L193.886 44.0724C194.21 43.6686 194.381 43.2606 194.397 42.8486C194.418 42.4421 194.28 42.0652 193.982 41.7178C193.603 41.2751 193.151 41.07 192.625 41.1025C192.1 41.135 191.551 41.396 190.98 41.8853C190.425 42.3602 190.091 42.8497 189.979 43.3537C189.872 43.8529 189.999 44.3126 190.359 44.7329C190.627 45.0467 190.945 45.2309 191.312 45.2855C191.69 45.3409 192.083 45.2667 192.491 45.0629L193.218 45.9119C192.802 46.2197 192.369 46.4058 191.919 46.4704C191.475 46.5301 191.04 46.4755 190.613 46.3064C190.197 46.1382 189.824 45.8607 189.493 45.4741Z" fill="#7FA0C6"/>
<path d="M192.725 50.6686L197.441 47.8393L196.302 45.9417L197.28 45.3554L200.183 50.1942L199.206 50.7806L198.067 48.883L193.352 51.7123L192.725 50.6686Z" fill="#7FA0C6"/>
<path d="M194.989 57.6641C194.789 57.0854 194.748 56.5376 194.867 56.0208C194.992 55.5016 195.261 55.038 195.674 54.63C196.09 54.2289 196.636 53.9116 197.312 53.6781C197.988 53.4445 198.614 53.3573 199.188 53.4165C199.765 53.4826 200.259 53.6826 200.671 54.0164C201.09 54.3479 201.399 54.8029 201.599 55.3816C201.801 55.9673 201.839 56.5163 201.711 57.0286C201.593 57.5454 201.326 58.0043 200.911 58.4054C200.498 58.8134 199.953 59.1341 199.277 59.3677C198.6 59.6012 197.974 59.6849 197.397 59.6188C196.822 59.5597 196.325 59.3644 195.907 59.033C195.497 58.7061 195.191 58.2498 194.989 57.6641ZM196.066 57.2921C196.252 57.829 196.592 58.18 197.086 58.345C197.58 58.5099 198.179 58.4708 198.883 58.2277C199.587 57.9845 200.083 57.6456 200.37 57.2109C200.657 56.7763 200.707 56.2905 200.522 55.7536C200.337 55.2167 199.997 54.8658 199.503 54.7008C199.009 54.5358 198.41 54.5749 197.706 54.8181C197.001 55.0613 196.506 55.4002 196.219 55.8348C195.932 56.2695 195.881 56.7553 196.066 57.2921Z" fill="#7FA0C6"/>
<path d="M193.203 61.5766L202.011 60.696L202.132 61.9071L201.527 61.9677L201.56 62.298C201.816 62.4206 202.029 62.6217 202.198 62.9013C202.367 63.181 202.469 63.497 202.504 63.8493C202.559 64.3998 202.464 64.8912 202.218 65.3235C201.979 65.7551 201.61 66.107 201.111 66.3793C200.612 66.6516 200.007 66.8234 199.295 66.8945C198.583 66.9657 197.955 66.9172 197.412 66.7491C196.869 66.581 196.434 66.3095 196.107 65.9344C195.788 65.5586 195.601 65.0954 195.546 64.5449C195.511 64.1926 195.548 63.8627 195.658 63.5551C195.776 63.2469 195.945 63.0076 196.165 62.8373L196.132 62.507L193.324 62.7877L193.203 61.5766ZM196.655 64.1783C196.71 64.7288 196.958 65.134 197.399 65.3938C197.841 65.661 198.432 65.7576 199.174 65.6834C199.915 65.6093 200.476 65.3976 200.856 65.0482C201.237 64.7062 201.4 64.2599 201.345 63.7094C201.289 63.1516 201.04 62.7391 200.598 62.4719C200.157 62.2121 199.566 62.1192 198.825 62.1933C198.083 62.2674 197.522 62.4755 197.141 62.8175C196.761 63.1669 196.599 63.6205 196.655 64.1783Z" fill="#7FA0C6"/>
<path d="M194.936 68.0463L201.495 69.0776L201.307 70.269L197.372 69.6503L195.554 69.3195L195.533 69.4507L200.967 72.4333L200.646 74.4773L194.087 73.446L194.275 72.2546L198.21 72.8733L200.028 73.2041L200.049 73.0729L194.615 70.0903L194.936 68.0463Z" fill="#7FA0C6"/>
<path d="M192.867 74.4058L199.006 76.9322L198.547 78.0475L194.863 76.5317L193.172 75.7876L193.121 75.9104L197.713 80.0735L196.926 81.9869L190.787 79.4606L191.246 78.3453L194.929 79.8611L196.621 80.6052L196.672 80.4824L192.079 76.3193L192.867 74.4058ZM200.661 79.5992C200.4 79.5158 200.178 79.5122 199.995 79.5885C199.819 79.6676 199.684 79.8197 199.592 80.0448C199.496 80.2767 199.485 80.4793 199.557 80.6527C199.633 80.8356 199.793 80.9892 200.037 81.1136L199.629 82.1061C199.141 81.8574 198.828 81.5331 198.689 81.1331C198.551 80.7331 198.592 80.2637 198.814 79.7248C199.036 79.1859 199.337 78.8231 199.717 78.6364C200.097 78.4498 200.547 78.4398 201.069 78.6066L200.661 79.5992Z" fill="#7FA0C6"/>
<path d="M192.515 91.8677L185.812 82.0307L186.528 81.0745L193.232 90.9115L192.515 91.8677Z" fill="#7FA0C6"/>
<path d="M181.631 88.8609L186.094 93.776L185.201 94.5868L182.523 91.6377L181.314 90.2399L181.215 90.3292L183.579 96.0595L182.047 97.4504L177.584 92.5353L178.477 91.7246L181.155 94.6736L182.364 96.0714L182.462 95.9822L180.099 90.2519L181.631 88.8609Z" fill="#7FA0C6"/>
<path d="M173.59 94.8296C174.079 94.474 174.585 94.2795 175.108 94.2461C175.631 94.2126 176.142 94.3332 176.643 94.6078C177.148 94.8884 177.608 95.3151 178.024 95.888C178.449 96.4727 178.714 97.0507 178.819 97.6218C178.929 98.1989 178.883 98.7382 178.682 99.2398C178.475 99.7457 178.118 100.183 177.611 100.552C177.17 100.873 176.714 101.062 176.246 101.12C175.782 101.184 175.333 101.118 174.899 100.922C174.469 100.733 174.081 100.418 173.733 99.9775L174.637 99.3205C175.014 99.6759 175.407 99.878 175.817 99.927C176.22 99.9803 176.607 99.8725 176.977 99.6037C177.448 99.2611 177.689 98.8265 177.698 98.2999C177.708 97.7733 177.491 97.2056 177.049 96.597C176.619 96.0062 176.158 95.6348 175.665 95.4828C175.175 95.3367 174.707 95.4263 174.26 95.7516C173.925 95.9944 173.717 96.2967 173.633 96.6584C173.548 97.0304 173.59 97.4279 173.761 97.851L172.857 98.508C172.583 98.0686 172.432 97.6222 172.404 97.1688C172.379 96.7214 172.468 96.2919 172.671 95.8803C172.872 95.4791 173.178 95.1288 173.59 94.8296Z" fill="#7FA0C6"/>
<path d="M166.049 99.4917L170.144 100.816L169.347 105.255L168.034 106.035L168.826 101.651L164.67 100.312L166.049 99.4917ZM169.225 97.603L172.618 103.309L171.572 103.931L168.179 98.225L169.225 97.603Z" fill="#7FA0C6"/>
<path d="M166.506 106.531L165.336 107.111L161.603 103.417L160.909 103.761L160.72 102.607L161.91 102.017L166.506 106.531ZM160.905 109.308L159.72 101.411C159.652 100.942 159.695 100.53 159.848 100.174C160.001 99.8186 160.252 99.5539 160.603 99.3803C161.105 99.1313 161.57 99.0735 161.999 99.207C162.427 99.3404 162.792 99.6617 163.094 100.171L162.103 100.662C161.915 100.483 161.751 100.367 161.609 100.314C161.461 100.264 161.304 100.28 161.139 100.362C160.993 100.434 160.901 100.538 160.861 100.673C160.814 100.811 160.807 101.004 160.839 101.252L161.985 108.772L160.905 109.308Z" fill="#7FA0C6"/>
<path d="M153.669 104.706C154.227 104.474 154.765 104.403 155.281 104.492C155.797 104.582 156.267 104.818 156.689 105.202C157.115 105.592 157.464 106.114 157.735 106.768C158.012 107.436 158.135 108.06 158.104 108.64C158.076 109.226 157.906 109.74 157.594 110.181C157.275 110.625 156.826 110.967 156.247 111.207C155.743 111.417 155.256 111.495 154.787 111.442C154.32 111.396 153.899 111.227 153.523 110.936C153.149 110.652 152.845 110.255 152.609 109.746L153.642 109.318C153.925 109.751 154.261 110.039 154.647 110.182C155.027 110.328 155.428 110.313 155.851 110.138C156.389 109.915 156.724 109.548 156.856 109.038C156.988 108.528 156.909 107.926 156.621 107.231C156.341 106.556 155.979 106.087 155.534 105.825C155.093 105.569 154.616 105.547 154.105 105.759C153.724 105.917 153.45 106.162 153.285 106.495C153.115 106.837 153.064 107.233 153.132 107.684L152.099 108.113C151.936 107.622 151.893 107.152 151.97 106.705C152.051 106.264 152.238 105.867 152.53 105.514C152.819 105.171 153.199 104.901 153.669 104.706Z" fill="#7FA0C6"/>
<path d="M147.244 106.927C147.815 106.728 148.356 106.687 148.866 106.805C149.376 106.924 149.832 107.187 150.232 107.594C150.635 108.008 150.953 108.549 151.187 109.217C151.425 109.9 151.513 110.53 151.449 111.107C151.388 111.691 151.188 112.194 150.852 112.617C150.508 113.042 150.04 113.358 149.448 113.565C148.933 113.745 148.443 113.795 147.977 113.716C147.514 113.643 147.103 113.451 146.744 113.139C146.387 112.834 146.106 112.421 145.9 111.899L146.955 111.53C147.214 111.979 147.532 112.285 147.91 112.45C148.281 112.617 148.682 112.625 149.114 112.474C149.664 112.282 150.019 111.935 150.18 111.433C150.341 110.932 150.297 110.326 150.048 109.616C149.807 108.926 149.472 108.438 149.043 108.15C148.617 107.869 148.143 107.82 147.62 108.003C147.231 108.139 146.943 108.369 146.759 108.691C146.57 109.023 146.497 109.416 146.539 109.87L145.484 110.239C145.348 109.74 145.332 109.269 145.435 108.826C145.541 108.391 145.749 108.005 146.062 107.669C146.37 107.343 146.764 107.095 147.244 106.927Z" fill="#7FA0C6"/>
<path d="M140.313 109.112L141.835 114.396L143.962 113.784L144.277 114.879L138.855 116.441L138.539 115.346L140.666 114.733L139.144 109.449L140.313 109.112Z" fill="#7FA0C6"/>
<path d="M135.081 110.366L136.606 116.828L133.785 117.494C133.095 117.656 132.527 117.624 132.079 117.396C131.624 117.17 131.329 116.77 131.193 116.195C131.127 115.915 131.149 115.641 131.26 115.372C131.366 115.112 131.543 114.9 131.792 114.735L131.762 114.606C131.428 114.571 131.139 114.442 130.897 114.219C130.657 114.003 130.496 113.722 130.415 113.378C130.279 112.803 130.368 112.312 130.681 111.905C130.987 111.499 131.492 111.213 132.195 111.047L135.081 110.366ZM134.156 111.744L132.444 112.148C132.114 112.226 131.878 112.354 131.738 112.531C131.593 112.717 131.551 112.943 131.614 113.208C131.677 113.474 131.814 113.654 132.025 113.748C132.232 113.851 132.5 113.863 132.83 113.785L134.542 113.381L134.156 111.744ZM134.786 114.415L133.139 114.804C132.808 114.882 132.573 115.009 132.433 115.186C132.287 115.372 132.244 115.591 132.304 115.842C132.363 116.094 132.498 116.266 132.71 116.36C132.916 116.463 133.184 116.476 133.515 116.398L135.162 116.009L134.786 114.415Z" fill="#7FA0C6"/>
<path d="M125.182 112.153C125.784 112.041 126.332 112.081 126.826 112.274C127.321 112.474 127.74 112.809 128.083 113.277C128.418 113.747 128.651 114.334 128.783 115.037C128.914 115.741 128.909 116.372 128.765 116.932C128.615 117.493 128.345 117.952 127.954 118.31C127.564 118.676 127.069 118.915 126.467 119.027C125.858 119.141 125.309 119.097 124.821 118.896C124.328 118.703 123.913 118.371 123.577 117.901C123.235 117.433 122.998 116.847 122.866 116.143C122.735 115.44 122.744 114.808 122.894 114.247C123.037 113.687 123.304 113.225 123.693 112.859C124.077 112.503 124.573 112.267 125.182 112.153ZM125.392 113.274C124.833 113.378 124.436 113.662 124.2 114.127C123.964 114.591 123.915 115.189 124.052 115.922C124.188 116.654 124.451 117.194 124.838 117.542C125.226 117.89 125.699 118.011 126.257 117.907C126.816 117.803 127.213 117.518 127.449 117.054C127.685 116.59 127.734 115.991 127.597 115.259C127.461 114.527 127.198 113.987 126.811 113.639C126.423 113.291 125.95 113.169 125.392 113.274Z" fill="#7FA0C6"/>
<path d="M114.722 113.379L115.558 119.965L114.35 120.118L113.998 117.341L111.21 117.695L111.562 120.472L110.355 120.625L109.519 114.039L110.727 113.886L111.065 116.553L113.853 116.2L113.515 113.532L114.722 113.379Z" fill="#7FA0C6"/>
<path d="M107.311 118.074L103.331 118.409L103.69 117.801C103.753 118.543 103.933 119.098 104.23 119.466C104.527 119.833 104.929 119.995 105.437 119.953C105.988 119.906 106.401 119.665 106.675 119.227C106.95 118.797 107.056 118.214 106.994 117.479C106.928 116.693 106.723 116.103 106.38 115.71C106.036 115.317 105.577 115.144 105.004 115.192C104.629 115.224 104.309 115.343 104.045 115.55C103.782 115.765 103.57 116.06 103.409 116.437L102.274 116.532C102.346 116.067 102.5 115.658 102.737 115.305C102.966 114.953 103.268 114.672 103.643 114.463C104.011 114.254 104.433 114.13 104.911 114.09C105.528 114.038 106.073 114.133 106.545 114.374C107.009 114.617 107.382 114.993 107.661 115.502C107.941 116.012 108.112 116.638 108.174 117.38C108.234 118.086 108.167 118.702 107.974 119.229C107.775 119.764 107.466 120.189 107.049 120.506C106.631 120.822 106.125 121.005 105.529 121.055C104.963 121.103 104.471 121.011 104.052 120.78C103.632 120.548 103.295 120.188 103.039 119.699C102.784 119.217 102.627 118.619 102.567 117.906C102.56 117.826 102.556 117.741 102.556 117.652C102.549 117.564 102.546 117.479 102.546 117.397L107.221 117.005L107.311 118.074Z" fill="#7FA0C6"/>
<path d="M100.238 114.584L100.432 121.22L99.2268 121.255L99.1104 117.274L99.1006 115.425L98.9679 115.429L97.0369 121.319L94.9687 121.38L94.7746 114.744L95.9801 114.708L96.0966 118.69L96.1064 120.538L96.2391 120.535L98.17 114.644L100.238 114.584Z" fill="#7FA0C6"/>
<path d="M93.5107 112.94L93.4812 115.762L93.0608 115.757C92.9264 115.911 92.814 116.075 92.7237 116.252C92.6259 116.435 92.5498 116.656 92.4955 116.913C92.4337 117.178 92.3824 117.498 92.3416 117.874C92.3007 118.257 92.2663 118.722 92.2385 119.267C92.2106 119.82 92.1816 120.48 92.1514 121.247L87.6704 121.2L87.7279 115.701L86.9091 115.693L86.9386 112.872L88.0892 112.884L88.0717 114.565L92.3425 114.61L92.36 112.928L93.5107 112.94ZM91.711 115.743L88.9449 115.714L88.8994 120.073L91.0348 120.096C91.0714 119.417 91.1069 118.846 91.1412 118.382C91.1756 117.917 91.2166 117.523 91.2642 117.199C91.3119 116.875 91.3701 116.599 91.4388 116.371C91.5076 116.143 91.5983 115.934 91.711 115.743Z" fill="#7FA0C6"/>
<path d="M84.3066 118.302L80.3172 118.102L80.7549 117.548C80.7176 118.292 80.8217 118.866 81.0673 119.27C81.3129 119.674 81.6899 119.888 82.1983 119.914C82.7508 119.941 83.1921 119.757 83.5223 119.36C83.852 118.97 84.0354 118.407 84.0724 117.67C84.112 116.882 83.9876 116.27 83.6993 115.835C83.4109 115.399 82.9794 115.167 82.4048 115.138C82.029 115.119 81.6966 115.195 81.4074 115.365C81.1178 115.542 80.8682 115.807 80.6585 116.158L79.5203 116.101C79.6537 115.65 79.8614 115.265 80.1432 114.947C80.4177 114.628 80.7546 114.391 81.154 114.233C81.546 114.076 81.9814 114.009 82.4603 114.033C83.0791 114.064 83.6062 114.231 84.0416 114.533C84.4695 114.836 84.7881 115.258 84.9972 115.8C85.2063 116.342 85.2922 116.985 85.2549 117.73C85.2193 118.437 85.071 119.039 84.8097 119.535C84.5407 120.039 84.1781 120.419 83.722 120.677C83.2659 120.935 82.7395 121.049 82.1428 121.019C81.5755 120.99 81.0996 120.834 80.7151 120.548C80.3306 120.263 80.0442 119.861 79.8561 119.342C79.6676 118.83 79.5913 118.217 79.6272 117.502C79.6312 117.421 79.6392 117.337 79.651 117.249C79.6554 117.16 79.6634 117.076 79.6748 116.995L84.3604 117.23L84.3066 118.302Z" fill="#7FA0C6"/>
<path d="M73.4754 117.566L73.5719 116.497L75.5834 116.368C75.8966 116.344 76.1376 116.258 76.3065 116.111C76.4681 115.962 76.5608 115.756 76.5847 115.491C76.6072 115.242 76.5337 115.031 76.3639 114.86C76.1869 114.689 75.9514 114.59 75.6575 114.563C75.3343 114.534 75.0335 114.585 74.755 114.715C74.4693 114.845 74.234 115.031 74.0491 115.273C73.8636 115.523 73.7565 115.806 73.728 116.122L73.5816 117.742C73.5431 118.168 73.6415 118.514 73.8767 118.78C74.1119 119.045 74.4536 119.198 74.9018 119.239C75.2177 119.268 75.5052 119.242 75.7642 119.161C76.0233 119.081 76.2426 118.949 76.4222 118.765C76.5944 118.581 76.7228 118.348 76.8075 118.067L77.9646 118.171C77.882 118.675 77.6993 119.099 77.4163 119.444C77.126 119.788 76.7551 120.04 76.3038 120.199C75.8524 120.358 75.3402 120.412 74.7672 120.36C73.9443 120.286 73.3278 120.019 72.9175 119.56C72.4998 119.1 72.3258 118.484 72.3955 117.713L72.7908 113.338L73.97 113.444L73.9152 114.05L74.2458 114.08C74.4447 113.846 74.6934 113.676 74.9918 113.57C75.2829 113.463 75.6342 113.428 76.0456 113.465C76.4497 113.502 76.7953 113.611 77.0826 113.792C77.3619 113.98 77.5731 114.225 77.7161 114.527C77.8519 114.828 77.9025 115.17 77.868 115.552C77.8182 116.103 77.601 116.539 77.2165 116.86C76.8314 117.188 76.3072 117.374 75.6441 117.417L73.4754 117.566Z" fill="#7FA0C6"/>
<path d="M70.8839 112.899L70.7361 114.007L70.5387 113.981C70.3486 113.955 70.1926 113.953 70.0707 113.974C69.9405 114.001 69.8306 114.072 69.7409 114.187C69.6429 114.308 69.5571 114.505 69.4835 114.778C69.4025 115.05 69.3199 115.418 69.2355 115.883L68.6341 119.386L64.1813 118.792L65.0593 112.211L66.2658 112.372L65.5385 117.823L67.6772 118.109L68.1278 115.4C68.2346 114.767 68.3609 114.267 68.5067 113.899C68.6442 113.538 68.8056 113.277 68.9908 113.116C69.1761 112.954 69.3974 112.857 69.6548 112.825C69.9112 112.799 70.2112 112.81 70.5548 112.855L70.8839 112.899Z" fill="#7FA0C6"/>
<path d="M62.5603 111.659L61.3982 118.196L60.1998 117.983L60.5833 115.826L58.9819 115.541C58.2557 115.412 57.7168 115.114 57.3653 114.647C57.0125 114.187 56.8968 113.616 57.0182 112.933C57.1396 112.25 57.4457 111.75 57.9367 111.433C58.4264 111.123 59.0343 111.032 59.7606 111.162L62.5603 111.659ZM61.1606 112.579L59.5592 112.295C59.1888 112.229 58.8857 112.269 58.6501 112.414C58.4132 112.567 58.2644 112.814 58.2037 113.155C58.143 113.496 58.1982 113.776 58.3692 113.994C58.539 114.219 58.8091 114.364 59.1795 114.43L60.7809 114.715L61.1606 112.579Z" fill="#7FA0C6"/>
<path d="M55.392 110.156L53.9261 116.631L52.739 116.362L53.3571 113.632L50.616 113.012L49.9979 115.742L48.8108 115.473L50.2768 108.998L51.4639 109.267L50.8701 111.889L53.6112 112.51L54.205 109.887L55.392 110.156Z" fill="#7FA0C6"/>
<path d="M45.8647 107.458C46.4546 107.622 46.9288 107.899 47.2873 108.29C47.6439 108.688 47.8729 109.172 47.9743 109.744C48.0686 110.314 48.02 110.943 47.8285 111.633C47.6369 112.322 47.3538 112.887 46.9791 113.326C46.5972 113.764 46.152 114.057 45.6434 114.207C45.1328 114.363 44.5826 114.36 43.9927 114.196C43.3957 114.03 42.9225 113.749 42.573 113.354C42.2145 112.963 41.9881 112.483 41.8938 111.913C41.7923 111.341 41.8374 110.711 42.0289 110.021C42.2205 109.332 42.5072 108.769 42.889 108.331C43.2638 107.892 43.7064 107.594 44.217 107.437C44.7185 107.285 45.2677 107.292 45.8647 107.458ZM45.5596 108.556C45.0124 108.404 44.5306 108.485 44.1144 108.798C43.6982 109.111 43.3904 109.626 43.191 110.344C42.9915 111.062 42.9893 111.663 43.1843 112.145C43.3794 112.628 43.7505 112.946 44.2978 113.098C44.8451 113.25 45.3268 113.169 45.743 112.856C46.1592 112.543 46.467 112.028 46.6664 111.31C46.8659 110.592 46.8681 109.992 46.6731 109.509C46.478 109.026 46.1069 108.708 45.5596 108.556Z" fill="#7FA0C6"/>
<path d="M40.3282 105.797L38.2146 112.09L33.935 110.653L34.2979 109.572L37.4236 110.622L39.1744 105.409L40.3282 105.797Z" fill="#7FA0C6"/>
<path d="M31.7625 102.274C32.3305 102.502 32.7708 102.831 33.0835 103.259C33.3935 103.694 33.567 104.201 33.6041 104.78C33.6343 105.357 33.5158 105.977 33.2486 106.641C32.9813 107.305 32.637 107.834 32.2156 108.229C31.7874 108.621 31.3122 108.863 30.7901 108.955C30.2652 109.054 29.7188 108.989 29.1509 108.761C28.5761 108.529 28.1371 108.197 27.834 107.765C27.5213 107.337 27.3498 106.835 27.3196 106.258C27.2825 105.679 27.3976 105.057 27.6648 104.393C27.9321 103.729 28.2798 103.201 28.708 102.809C29.1295 102.414 29.6026 102.168 30.1274 102.069C30.6427 101.974 31.1877 102.042 31.7625 102.274ZM31.3369 103.331C30.81 103.119 30.3223 103.145 29.8738 103.41C29.4253 103.675 29.0619 104.152 28.7836 104.844C28.5054 105.535 28.4362 106.131 28.5762 106.633C28.7162 107.134 29.0496 107.491 29.5765 107.703C30.1034 107.916 30.5911 107.889 31.0396 107.625C31.4881 107.36 31.8515 106.882 32.1298 106.191C32.408 105.5 32.4771 104.903 32.3372 104.402C32.1972 103.9 31.8638 103.543 31.3369 103.331Z" fill="#7FA0C6"/>
</svg>
