<svg width="77" height="56" viewBox="0 0 77 56" fill="none" xmlns="http://www.w3.org/2000/svg">
<path d="M38.5661 4.52413C38.5414 4.52413 36.7813 4.55559 33.5389 4.7999C30.7948 5.00667 28.8105 6.1977 27.4731 6.84503C25.5882 7.75731 23.6369 9.77962 21.3883 12.2193C19.9769 13.7507 19.6192 15.1331 19.4023 16.3946C18.9191 19.2042 18.8591 21.889 18.9291 23.3762C19.0472 25.8836 20.4982 27.8211 21.6011 28.8837C22.7431 29.9841 25.4516 30.0983 27.895 30.1556C28.996 30.1815 30.8456 29.2147 33.5233 27.7469C34.9354 26.9728 36.3165 25.8983 39.0155 23.1005C41.7146 20.3028 45.6542 15.7526 48.0041 12.8492C51.1576 8.95308 51.7309 7.47738 51.8611 7.07782C51.9896 6.68377 52.104 4.57478 52.1997 1.70073C52.2325 0.715854 51.99 0.691885 50.8681 2.12636C49.7462 3.56083 47.6901 6.4543 42.8349 13.7115C37.9797 20.9687 30.3877 32.502 25.6816 39.296C20.9755 46.0899 19.3854 47.7951 18.0126 49.1337C15.611 51.4758 14.0129 52.5825 13.0826 53.1017C10.9287 54.3037 8.23992 54.2962 5.96293 54.0754C5.21193 53.8699 3.95854 53.4866 3.06179 53.152C2.16505 52.8175 1.66293 52.5432 1 51.9843" stroke="#7FA0C6" stroke-width="2" stroke-linecap="round"/>
<path d="M33.0234 29.5139C33.0234 30.0751 33.0888 31.3258 33.2595 31.7182C33.4191 32.085 33.8727 32.1987 34.2999 32.2394C35.1292 32.3184 36.1512 31.8045 37.7593 30.516C39.6019 29.0398 40.8075 27.0822 41.5661 25.9041C42.1917 24.9325 42.3801 24.2137 42.3436 23.9145C42.2032 22.766 39.828 25.923 38.0073 29.9297C37.3642 31.3448 37.4008 32.3367 37.4716 32.9776C37.4981 33.2178 37.7242 33.2349 37.9371 33.1538C38.1501 33.0727 38.3989 32.8801 39.5064 31.8508C40.614 30.8215 42.5728 28.9614 43.7345 27.8146C45.7249 25.8497 45.9807 25.0889 46.1168 24.6283C46.1509 24.513 45.888 24.6265 45.704 24.8238C44.2777 26.3533 44.464 30.1154 44.6616 31.0384C44.7502 31.4526 45.4417 31.3185 45.7947 31.2902C46.8474 31.2059 47.9588 30.0371 48.8066 28.9487C50.2961 27.0365 50.4137 25.8218 50.4441 25.1246C50.4545 24.8862 49.087 27.6679 47.5937 31.5332C46.8929 33.3472 46.8053 34.0983 46.831 34.6343C46.8414 34.8521 47.0603 34.9228 47.2405 34.9376C47.6108 34.968 48.075 34.6742 50.0743 32.7395C51.8494 31.0218 54.9848 27.6248 57.6296 24.4601C60.2745 21.2954 62.2869 18.4185 63.4901 16.5633C65.7514 13.0767 65.7404 11.5992 65.6316 10.5981C65.5923 10.2366 65.2447 10.0244 64.9594 9.8713C64.6762 9.71934 63.471 10.812 61.358 13.3111C60.1438 14.7471 59.0467 16.8433 57.9641 19.0017C56.8814 21.1601 55.95 23.3989 55.1455 25.7474C54.341 28.0959 53.6918 30.4864 53.346 31.8158C52.951 33.3347 52.9532 34.3724 53.0944 35.5402C53.1386 35.9048 53.5231 35.7017 55.0381 34.0256C56.5531 32.3495 59.2882 29.1797 60.7911 27.4087C62.8454 24.9878 62.9644 24.4252 62.9589 24.0996C62.9562 23.9394 62.8151 23.8066 61.8606 25.107C60.9061 26.4075 59.1069 29.1497 58.1567 30.6776C57.0892 32.3942 57.1116 32.9429 57.1933 33.3648C57.2263 33.5349 57.4385 33.5458 58.6315 32.558C59.8245 31.5702 62.0421 29.5657 63.4267 28.1891C65.4015 26.2257 65.9594 25.0699 66.1102 24.5684C66.1551 24.4189 65.8989 24.4587 65.763 24.5661C65.6271 24.6735 65.5588 24.8412 64.3689 27.975C63.179 31.1087 60.8697 37.2036 59.36 40.8922C57.8502 44.5808 57.2099 45.6785 56.7223 46.4378C55.0383 49.0601 52.4127 50.6048 51.6795 50.951C50.6234 51.4498 49.6961 51.386 48.9741 51.0906C48.5288 50.9083 48.3654 50.3572 48.2346 49.7634C47.8391 47.9684 48.9038 46.3007 50.6789 43.7102C51.0038 43.2361 51.1485 43.1132 52.076 42.3117C53.0035 41.5101 54.7307 40.0489 58.764 37.6701C62.7973 35.2913 69.0844 32.0392 75.5619 28.6885" stroke="#7FA0C6" stroke-width="2" stroke-linecap="round"/>
</svg>
