<svg width="386" height="178" viewBox="0 0 386 178" fill="none" xmlns="http://www.w3.org/2000/svg">
<path d="M56.8463 21.273C56.8463 20.631 56.3469 18.1458 54.8121 15.1821C51.6439 9.0639 49.9184 7.19903 47.8614 5.01798C45.5011 2.51546 42.9554 1.72421 39.0515 1.34843C34.8517 0.944173 30.8001 1.64833 26.745 2.40978C24.1665 2.89394 20.2527 5.29578 17.2355 7.65953C15.2068 9.24881 13.161 11.3088 11.1533 12.9527C9.39431 14.3931 9.91036 17.3953 9.0897 20.8732C8.3106 24.175 9.38722 28.3481 10.8005 30.3893C12.1687 32.3654 14.0051 34.1852 17.0864 37.4842C21.5818 42.2971 26.578 44.9278 30.6844 47.9825C35.9107 51.8701 44.9369 59.5079 47.8477 62.1759C50.0482 64.1928 51.4175 66.7886 53.7339 74.2621C55.984 81.5217 53.1329 89.4356 51.4829 94.0966C49.6863 97.4299 47.6814 98.6142 45.0217 100.115C44.3727 100.473 43.832 100.702 43.1308 101.022" stroke="#7FA0C6" stroke-width="2" stroke-linecap="round"/>
<path d="M49.9139 99.7988C49.0356 100.762 46.6584 103.335 44.6348 104.995C41.3861 107.659 38.2991 108.84 30.5817 113.699C18.9415 121.029 14.7967 120.22 11.3556 120.772C9.17531 121.122 6.31272 120.868 3.77003 120.706C2.7686 120.642 2.43109 120.045 2.24522 119.491C1.461 117.151 2.11574 114.574 3.40714 112.514C4.53759 110.71 5.54128 108.793 6.47791 106.309C8.15836 101.852 16.4373 93.28 23.9302 86.0395C28.7819 81.351 32.8724 75.9573 37.1496 72.061C44.5453 65.3238 47.239 64.4532 54.7811 59.0969C58.2412 56.6396 64.3031 51.0315 68.713 47.9605C73.2133 44.8265 80.0905 37.9397 83.7685 34.8319C84.1617 34.3853 84.5331 33.8992 84.9318 33.4704C85.3305 33.0416 85.7453 32.6849 86.7915 32.2305" stroke="#7FA0C6" stroke-width="2" stroke-linecap="round"/>
<path d="M83.9577 32.5586C84.0326 33.2691 84.5356 36.0363 85.2285 42.2571C85.7136 46.6131 83.9498 52.8842 81.4035 59.6955C78.4813 67.5125 76.5472 69.6397 74.8477 72.5903C71.8902 77.7248 70.5392 81.7131 69.2242 85.1841C67.1775 90.5866 66.7076 96.2077 67.0018 97.4479C67.1254 97.9694 67.873 97.9831 68.4626 97.9613C70.8839 97.8718 72.908 95.5372 74.597 93.4343C76.3297 91.2769 78.1578 89.2964 79.9129 86.6767C80.4681 85.7418 81.1878 84.4744 81.7838 83.5956C82.3798 82.7168 82.8302 82.2649 84.2523 81.1317" stroke="#7FA0C6" stroke-width="2" stroke-linecap="round"/>
<path d="M86.383 68.4759C86.72 71.6619 86.4724 80.023 86.0683 82.9364C85.9743 83.6143 85.8142 84.3109 85.9744 84.4344C87.7781 85.8262 89.3237 80.4409 90.546 78.0335C91.7055 75.7497 93.4693 73.9642 96.5997 70.4957C97.7447 69.2272 98.9579 68.7324 100.063 68.583C100.587 68.5122 101.04 68.989 101.273 69.6496C102.328 72.6445 100.545 75.1494 99.8022 78.8635C99.4413 80.6681 99.5301 82.2363 99.5368 82.944C99.5555 84.9308 102.209 78.9349 103.709 75.5559C105.001 72.6445 106.241 70.471 109.156 68.4459C110.36 67.6097 112.088 67.6853 113.694 67.9378C117.043 68.4643 114.431 76.1572 113.784 78.5039C113.626 79.0758 113.527 79.636 113.755 79.8434C115.161 81.1273 117.779 77.3695 122.312 74.8761C126.465 72.5918 128.197 72.1862 129.032 72.074C130.872 71.8266 128.9 76.1254 129.061 78.8563C129.094 79.4137 130.012 79.363 130.56 79.2168C132.72 78.6403 134.51 76.0376 139.313 71.101C143.89 65.4176 144.97 64.0391 145.996 63.4801C146.581 63.2716 147.3 63.2157 148.12 63.6519" stroke="#7FA0C6" stroke-width="2" stroke-linecap="round"/>
<path d="M224.571 30.1986C224.535 28.5935 224.273 24.3921 222.497 17.4184C221.09 11.8918 217.159 6.62753 215.87 5.42284C215.23 4.82572 214.535 4.42921 213.917 4.14161C213.326 3.86726 211.523 3.87561 209.027 4.25666C207.061 4.5569 205.901 7.09791 204.464 8.67006C203.618 9.59581 201.142 12.5343 197.413 16.3868C195.901 17.949 195.673 19.408 194.922 21.3271C194.193 23.1892 193.04 27.6114 191.431 34.0312C190.093 39.3696 189.273 44.0062 188.899 47.6804C188.673 49.8951 187.948 54.5198 186.565 61.1852C185.983 63.9921 185.482 65.5959 184.875 68.1318C184.268 70.6676 183.529 74.078 183.019 79.3376C182.509 84.5972 182.25 91.6028 182.155 96.5275C182.009 104.083 182.419 107.009 182.882 107.397C183.848 108.205 188.783 107.933 194.641 106.828C197.238 106.338 199.423 103.616 202.02 99.3813C203.858 96.382 206.683 90.4945 210.318 84.3086C213.952 78.1227 218.125 71.7107 221.172 66.7962C224.22 61.8818 226.016 58.6592 228.595 54.9513C231.175 51.2434 234.484 47.1478 237.996 42.9518C241.509 38.7557 245.125 34.5832 247.369 31.8103C252.019 26.062 252.501 22.5252 253.177 20.4888C254.089 17.7419 254.671 13.9537 254.865 9.12659C254.901 8.24478 254.625 7.85478 254.387 7.59203C253.935 7.09497 253.076 7.05412 252.261 7.24069C251.32 7.45609 250.935 9.16954 249.954 11.1562C248.497 14.1061 246.944 17.2531 246.039 20.4689C245.059 23.9544 244.131 26.3365 243.118 30.0096C242.272 33.0777 240.437 38.5 239.269 42.4595C238.101 46.419 237.574 48.7283 236.422 53.242C235.269 57.7556 233.508 64.4037 232.225 69.8046C230.942 75.2055 230.192 79.1577 229.805 82.9877C229.419 86.8177 229.419 90.4057 229.419 94.1024" stroke="#7FA0C6" stroke-width="2" stroke-linecap="round"/>
<path d="M230.156 90.1737C230.156 91.1496 230.156 94.6661 230.169 99.6672C230.181 104.194 231.533 106.944 232.745 108.107C232.994 108.346 233.443 108.252 233.815 108.037C235.467 107.083 236.389 103.359 238.804 98.9603C239.347 97.9706 240.041 96.2038 241.542 92.7561C244.755 85.377 245.203 82.4865 246.162 79.9003C247.284 76.8718 248.314 75.3061 249.058 74.8318C249.355 74.6419 249.644 74.8787 249.774 75.155C250.766 77.2742 250.068 80.8219 250.898 82.0487C252.076 83.7883 256.597 82.5525 258.497 81.5211C260.964 80.1816 261.699 78.8797 265.927 74.9894C266.839 74.1502 267.124 73.993 267.429 73.884C267.734 73.775 268.064 73.7362 268.28 73.8838C269.967 75.0341 269.169 81.6051 269.834 84.5509C269.947 85.0475 270.314 85.5649 270.611 85.9269C270.908 86.2889 271.217 86.4491 271.559 86.4171C271.902 86.385 272.268 86.1557 273.299 85.3668C274.33 84.5778 276.015 83.2362 278.137 81.2859" stroke="#7FA0C6" stroke-width="2" stroke-linecap="round"/>
<path d="M278.586 81.6433C285.396 74.9555 288.752 71.808 289.338 71.5473C289.634 71.4157 289.984 71.4386 290.193 71.6113C291.234 72.4692 290.608 75.1165 290.382 76.9906C290.247 78.1098 290.176 80.033 290.327 82.0282C290.383 82.7643 290.78 82.8846 291.21 82.8391C293.616 82.5845 295.19 80.3294 298.376 79.0009C300.586 78.0795 301.931 77.0688 302.721 76.8928C304.927 76.4008 306.998 77.6658 308.405 78.5656C309.644 79.3582 310.928 80.0072 312.546 80.8737C315.563 82.1919 320.304 83.9302 325.674 85.5545C328.214 86.2334 330.376 86.6173 332.717 87.0128" stroke="#7FA0C6" stroke-width="2" stroke-linecap="round"/>
<path d="M330.203 86.1309C330.964 86.152 333.133 86.3736 334.475 86.5947C335.302 86.731 339.362 86.887 348.294 86.8232C353.618 86.7852 360.545 86.638 364.532 86.6218C368.52 86.6056 369.358 86.6999 371.873 86.7651C374.388 86.8302 378.555 86.8634 382.848 86.8976" stroke="black" stroke-width="2" stroke-linecap="round"/>
<path d="M8.29688 25.9717C8.29688 24.8113 8.48229 21.669 8.79087 20.072C9.13727 18.2793 9.97543 16.6388 10.9658 14.8776C11.8443 13.3152 14.752 10.8419 18.2883 8.14911C20.5809 6.40346 22.7126 5.22564 24.2087 4.13539C26.4248 2.52052 29.5552 2.21821 32.5372 2.08003C40.9261 1.69129 42.8888 2.81856 44.6893 3.32102C47.354 4.06467 49.0392 5.93572 50.6921 7.38338C52.3466 8.83247 53.3078 10.3727 54.2609 11.9516C55.3425 13.7431 56.114 16.0643 56.9499 18.3086C57.2217 19.1845 57.3827 19.9355 57.4502 20.5879C57.4839 20.9179 57.5161 21.2457 57.592 21.626" stroke="#7FA0C6" stroke-width="4" stroke-linecap="round"/>
<path d="M8.88281 20.3848C8.88281 22.7305 9.53425 28.5808 10.7276 30.4167C12.8404 33.6673 14.5803 34.6602 16.5777 36.4514C18.5381 38.2095 20.6864 40.0904 22.7152 41.8297C24.388 43.2638 26.0876 44.4892 27.7439 45.8013C29.6364 47.3006 33.2945 49.6583 37.3332 52.8996C42.8155 57.6094 46.6013 60.9872 47.6282 62.0237C48.0524 62.4771 48.2801 62.7829 48.5422 63.1708" stroke="#7FA0C6" stroke-width="4" stroke-linecap="round"/>
<path d="M48.381 62.8398C48.5316 63.1383 49.2323 64.3189 51.3167 68.279C53.0835 71.636 53.6467 74.0998 54.3019 77.5925C55.699 85.0407 53.9433 86.9034 53.1135 88.9526C51.9949 91.7154 50.6036 94.3799 49.9039 96.1114C49.1204 98.0504 47.7554 100.093 46.907 101.273C46.0962 102.4 44.7386 103.499 43.3584 104.418C42.1923 105.163 41.3356 105.821 40.7476 106.222C40.4651 106.438 40.2147 106.679 39.9141 107.036" stroke="#7FA0C6" stroke-width="4" stroke-linecap="round"/>
<path d="M46.7392 65.1719C46.4537 65.4069 45.351 66.0942 44.1836 66.69C42.9028 67.3436 40.9681 68.7501 37.4181 71.283C33.8278 73.8447 30.749 76.7777 27.9412 79.4813C23.5176 83.7408 21.9454 85.8788 19.5518 88.3486C16.1358 91.8733 12.242 97.5825 10.1294 100.746C8.64984 102.962 6.85089 106.135 5.64141 108.218C5.09974 108.934 4.60718 109.656 4.25181 110.329C4.07771 110.675 3.9163 111.032 3.75 111.399" stroke="#7FA0C6" stroke-width="4" stroke-linecap="round"/>
<path d="M3.43155 111.88C3.415 112.36 2.63558 114.893 2.05984 117.417C1.93679 117.956 2.0235 118.488 2.14024 118.887C2.59352 120.437 4.73476 121.014 7.24929 121.294C10.8121 121.691 15.4492 121.381 17.3026 120.973C22.4769 119.833 26.5194 116.638 28.18 115.612C30.287 114.311 33.0431 113.346 35.5785 111.252C36.44 110.581 37.4877 109.959 39.0057 109.03C39.7783 108.517 40.5556 107.916 41.6649 107.189" stroke="#7FA0C6" stroke-width="4" stroke-linecap="round"/>
<path d="M49.1719 62.4115C49.6473 62.2765 52.3808 60.1675 56.8006 56.1406C59.2645 53.8957 62.3684 51.4561 64.751 49.6341C68.6738 46.6343 71.5027 44.6862 74.0026 42.6466C79.8859 38.1214 82.6461 35.7346 84.1314 34.7014C84.9103 34.1442 85.7401 33.52 86.7631 32.793" stroke="#7FA0C6" stroke-width="4" stroke-linecap="round"/>
<path d="M84.8768 34.1855C85.0717 34.6577 85.7026 36.3347 85.9828 39.1931C86.8602 48.1433 85.5394 49.9459 84.6554 52.3135C82.5027 58.0791 80.5359 63.7272 79.7618 65.2244C78.2336 68.1803 75.9761 72.0921 74.5145 73.9275C73.1834 75.7001 71.9618 78.5853 70.0308 87.3567C69.6948 89.0893 69.6344 89.5094 69.4844 90.4501" stroke="#7FA0C6" stroke-width="4" stroke-linecap="round"/>
<path d="M69.489 90.5958C69.489 91.6177 69.4203 94.2506 69.2684 96.1466C69.2345 96.5687 69.521 96.8169 69.8253 96.944C70.4894 97.2215 71.4869 96.7983 72.4155 96.2746C73.8885 95.444 76.0356 92.1987 77.7774 89.8248C79.7927 87.7708 81.8706 85.2445 83.0227 83.3256C83.3344 82.829 83.7338 82.2223 84.2619 81.5156" stroke="#7FA0C6" stroke-width="4" stroke-linecap="round"/>
<path d="M86.75 68.4972C86.75 73.589 87.1014 83.7924 87.8115 83.486C89.7035 82.6697 89.7315 79.8575 91.8779 76.4117C93.7339 73.4321 96.7651 71.4014 97.9984 70.1872C98.6564 69.5393 99.3387 68.9578 100.023 68.6196C100.633 68.3185 101.488 68.3053 102.269 68.5623C103.832 69.0769 102.024 71.9112 101.365 74.7798C100.388 79.0335 100.49 80.6755 100.494 80.7949C100.596 84.3443 104.851 72.3644 106.829 70.0335C108.137 68.4915 111.224 67.3073 115.571 66.8496C116.549 70.017 116.328 75.688 115.953 77.1326C115.799 77.8177 115.718 78.4054 115.591 79.7521" stroke="#7FA0C6" stroke-width="4" stroke-linecap="round"/>
<path d="M115.594 79.9113C116.582 79.3513 118.99 77.9181 124.155 74.0811C125.671 72.9544 126.324 72.4613 127.01 72.2269C127.722 71.9837 128.466 72.0476 129.079 72.1886C130.626 72.5443 129.977 76.3123 130.773 77.8028C130.942 78.1197 131.416 78.1299 131.768 78.1476C133.197 78.219 136.184 74.8365 139.315 71.1594C141.499 68.5953 143.694 66.936 146.361 65.4499C146.956 65.1646 147.291 65.093 147.559 65.183C147.828 65.273 148.02 65.5267 148.218 66.1041" stroke="#7FA0C6" stroke-width="4" stroke-linecap="round"/>
<path d="M153.035 62.5215C153.048 63.591 154.009 69.7932 156.168 77.4831C158.421 85.5089 156.909 94.1619 156.254 99.3709C155.432 105.915 153.01 112.745 151.98 116.07C151.197 118.598 148.652 125.181 146.37 132.485C143.68 141.098 143.46 145.166 142.597 148.425C141.635 152.058 140.864 154.297 139.405 159.391C138.339 163.114 136.801 166.57 135.462 170.04C134.994 171.128 134.554 172.061 134.082 173.132C133.828 173.724 133.543 174.415 133.25 175.127" stroke="#7FA0C6" stroke-width="4" stroke-linecap="round"/>
<path d="M225.04 30.1977C225.035 29.2775 224.422 23.5546 223.515 20.0153C222.626 16.5435 221.089 12.9252 219.057 8.69054C217.71 5.88465 215.809 5.54374 214.394 4.7238C212.938 3.87974 210.673 4.70222 209.163 5.31289C207.212 6.10208 206.061 7.24333 204.772 8.16816C203.245 9.26308 202.179 10.3878 201.273 11.4177C200.04 12.8181 197.856 15.0994 196.341 16.997C194.049 19.8693 193.734 23.2378 193.451 24.8655C193.177 26.4374 192.556 28.658 191.746 31.2087C190.508 35.1048 190.92 38.8128 190.137 43.1332C189.114 48.7761 188.757 53.4596 188.628 55.0487C188.569 55.5041 188.487 56.0698 188.296 57.0822C188.105 58.0946 187.807 59.5365 187.484 61.4848" stroke="#7FA0C6" stroke-width="4" stroke-linecap="round"/>
<path d="M187.482 61.6543C187.453 62.052 187.151 63.5956 186.568 65.0825C185.775 67.1019 185.124 69.4299 184.348 71.8984C183.765 73.752 183.031 77.2444 182.477 81.1826C181.84 85.7038 181.856 91.1334 181.663 94.3654C181.218 101.828 182.477 103.354 183.218 104.659C183.94 105.931 185.789 105.838 187.295 106.057C188.988 106.303 191.44 106.32 193.581 105.938C194.317 105.68 195.47 105.27 197.035 104.653C197.799 104.318 198.505 103.939 199.232 103.548" stroke="#7FA0C6" stroke-width="4" stroke-linecap="round"/>
<path d="M199.023 103.861C199.409 103.556 200.619 102.331 202.716 99.2063C208.247 90.9642 208.624 88.2985 210.167 85.5349C210.709 84.563 211.763 82.8745 213.133 80.1695C214.214 77.7236 216.916 73.0921 221.032 66.6412C222.921 63.6394 224.404 61.1895 226.582 57.916" stroke="#7FA0C6" stroke-width="4" stroke-linecap="round"/>
<path d="M226.586 57.7453C226.586 57.7208 226.752 57.105 227.158 55.9335C227.555 54.7856 231.034 49.9164 235.815 42.9994C238.677 38.8579 241.22 37.2023 245.681 31.505C249.626 26.4666 252.572 20.9111 253.771 17.0403C254.391 15.0385 254.341 10.5951 253.577 8.02951C253.37 7.33396 252.217 7.55251 251.535 7.63819C250.154 7.81149 248.543 11.78 246.645 15.3843C245.645 17.2818 245.088 19.3416 244.759 21.2527C244.397 23.3534 244.056 26.786 242.812 32.0174C240.269 42.716 239.31 44.2758 238.502 47.984C238.333 48.9631 238.234 49.7844 237.867 51.3315C237.5 52.8786 236.867 55.1265 236.125 57.5391" stroke="#7FA0C6" stroke-width="4" stroke-linecap="round"/>
<path d="M235.95 57.5391C235.93 58.1509 235.722 60.0744 234.686 64.3647C233.966 67.3436 233.207 70.8473 231.978 78.8407C231.025 85.0388 230.79 87.9111 230.371 91.3918C229.388 99.5526 230.153 103.557 230.739 106.063C231.178 106.635 231.669 107.147 232.298 107.52C232.67 107.647 233.151 107.647 233.646 107.647" stroke="#7FA0C6" stroke-width="4" stroke-linecap="round"/>
<path d="M233.82 107.648C234.45 106.669 236.393 104.123 241.697 93.6817C244.022 89.1055 246.197 82.2561 247.597 78.6788C248.997 75.1016 249.227 74.8516 249.494 74.8097C249.761 74.7677 250.057 74.9413 250.286 75.2787C251.444 76.9884 251.385 79.195 252.101 80.8645C252.403 81.5678 253.014 82.0246 253.664 82.4245C254.337 82.8394 255.269 82.8045 256.174 82.7135C258.476 82.4823 262.52 78.4342 264.686 76.1141C265.207 75.5562 265.853 75.0758 266.654 74.7101C267.387 74.3753 268.316 74.4726 269.107 74.6634C271.286 75.1886 270.064 80.8241 270.385 83.1219C270.579 84.5172 271.453 85.4515 272.029 85.8363C272.314 86.0266 272.71 85.9695 273.044 85.8683C274.612 85.3933 275.991 83.4469 278.929 80.8288C283.931 76.3715 285.746 74.127 288.013 72.3756C289.339 71.3519 290.826 71.4089 291.518 71.5559C291.861 71.6288 292.088 71.9968 292.226 72.4063C292.81 74.1448 291.588 75.8897 291.316 78.5771C291.208 79.6444 291.285 81.1969 291.474 82.0244C291.662 82.8519 292.04 82.9125 292.453 82.865C294.26 82.6569 295.731 81.2544 297.492 79.9489C298.78 78.9945 300.867 78.5191 303.886 78.4388C304.514 78.493 304.855 78.5907 305.293 78.7778C305.732 78.9649 306.258 79.2383 306.928 79.6589" stroke="#7FA0C6" stroke-width="4" stroke-linecap="round"/>
<path d="M301.289 78.3203C303.09 78.3203 307.743 78.8585 309.491 79.8369C311.436 80.9246 314.603 81.3132 320.311 82.4219C323.5 83.0413 327.409 84.6207 331.495 85.2614C335.173 85.8383 338.166 85.8784 339.92 86.0049C341.747 86.1369 343.997 86.3024 347.916 86.3977C350.721 86.466 355.981 86.4828 359.42 86.4887C364.318 86.497 366.179 86.3479 368.843 86.23C375.399 86.0855 380.361 86.0788 381.537 86.2471C382.128 86.3414 382.709 86.4535 383.896 87.1399" stroke="#7FA0C6" stroke-width="4" stroke-linecap="round"/>
</svg>
